<svg version="1.1" id="Layer_1" xmlns="http://www.w3.org/2000/svg" xmlns:xlink="http://www.w3.org/1999/xlink" x="0px" y="0px"
	 width="100%" viewBox="0 0 180 180" enable-background="new 0 0 180 180" xml:space="preserve">
<path fill="#FEFDFC" opacity="1.000000" stroke="none" 
	d="
M181.000000,77.000000 
	C181.000000,112.000000 181.000000,146.500000 181.000000,181.000000 
	C121.000000,181.000000 61.000000,181.000000 1.000000,181.000000 
	C1.000000,121.000000 1.000000,61.000000 1.000000,1.000000 
	C61.000000,1.000000 121.000000,1.000000 181.000000,1.000000 
	C181.000000,26.166666 181.000000,51.333332 181.000000,77.000000 
M99.591919,123.277634 
	C99.427071,123.610962 99.262215,123.944283 98.991653,124.817215 
	C98.615860,125.201096 98.240067,125.584969 97.462402,126.201569 
	C97.214973,126.409729 97.060944,126.672630 96.673973,127.719643 
	C96.479317,127.901436 96.284660,128.083237 96.123405,128.268234 
	C96.123405,128.268234 96.089409,128.274017 95.793221,128.813644 
	C95.612137,128.910141 95.431046,129.006638 94.480499,129.053787 
	C93.054916,129.643890 91.629333,130.233994 90.994392,130.496826 
	C88.558357,129.512787 86.735336,128.776367 84.457489,127.817261 
	C84.312271,127.521332 84.167053,127.225395 84.012360,126.212212 
	C83.010216,125.142189 82.008072,124.072166 80.404137,122.520302 
	C78.538765,122.059883 76.676163,121.213219 74.807594,121.199867 
	C59.143291,121.087959 43.477890,121.121819 27.812845,121.137718 
	C26.572376,121.138977 25.332106,121.335312 23.644434,121.479103 
	C24.259007,122.670731 24.521917,123.445282 24.994514,124.058136 
	C36.788479,139.352173 48.572128,154.654572 60.482094,169.857941 
	C61.375065,170.997849 63.196033,172.055588 64.589546,172.060623 
	C82.080894,172.123795 99.572960,171.985764 117.714584,172.154160 
	C118.488472,171.444321 119.262360,170.734482 120.648888,169.748657 
	C136.121002,150.194534 151.700836,130.724258 167.014572,111.046875 
	C173.551376,102.647438 173.748383,105.827133 166.783981,96.975471 
	C164.728775,94.363373 162.675156,91.745224 160.507782,89.227135 
	C154.710861,82.492126 148.852646,75.809883 142.084213,68.940758 
	C127.049736,68.846352 112.015259,68.751945 96.084099,68.388283 
	C91.021927,68.385147 85.959755,68.382004 80.089569,68.141998 
	C78.127380,68.051231 76.165184,67.960457 74.514359,67.324280 
	C76.000656,65.223518 77.486954,63.122761 79.588196,60.736431 
	C83.077057,56.175827 86.565918,51.615223 90.770279,46.939335 
	C93.707237,50.193657 96.867035,53.278587 99.510437,56.756058 
	C101.613869,59.523167 103.858574,60.703922 107.422523,60.657539 
	C122.717804,60.458488 138.017166,60.580162 153.315002,60.558617 
	C154.755936,60.556591 156.196625,60.370293 158.089447,60.237942 
	C157.517136,59.073650 157.282654,58.296719 156.818939,57.697052 
	C144.925766,42.317272 133.079102,26.899990 120.983627,11.680570 
	C119.810394,10.204325 117.082916,9.303078 115.058594,9.270436 
	C101.759483,9.055992 88.455109,9.108309 75.152977,9.176270 
	C71.062630,9.197168 66.973907,9.539134 62.933262,9.792336 
	C62.933262,9.792336 62.857388,9.796780 62.331009,9.964939 
	C62.197311,10.299383 62.063614,10.633826 61.334175,11.269603 
	C60.294060,12.566245 59.239803,13.851830 58.215946,15.161187 
	C42.852207,34.809177 27.461502,54.436352 12.204072,74.166573 
	C11.225521,75.431992 10.342634,78.259796 11.003995,79.080505 
	C20.147099,90.426468 29.568689,101.548012 39.866535,112.901611 
	C48.239220,113.048721 56.611904,113.195839 65.241714,114.074867 
	C70.501831,113.893745 75.761940,113.712616 81.854256,113.456207 
	C89.987366,113.530342 98.120483,113.604485 105.985954,113.856316 
	C105.985954,113.856316 105.969307,114.177139 106.043556,114.796028 
	C106.087196,114.999161 106.130844,115.202301 105.961739,115.954575 
	C105.258507,117.106667 104.555267,118.258759 103.225624,119.644333 
	C102.473198,120.430878 101.720772,121.217422 100.519653,122.238800 
	C100.366898,122.531960 100.214142,122.825127 100.038361,123.039108 
	C100.038361,123.039108 100.119705,123.052689 99.591919,123.277634 
M97.586975,116.516846 
	C97.586975,116.516846 97.478149,116.581177 97.586975,116.516846 
z"/>
<path fill="#EC5329" opacity="1.000000" stroke="none" 
	d="
M143.018784,69.106674 
	C148.852646,75.809883 154.710861,82.492126 160.507782,89.227135 
	C162.675156,91.745224 164.728775,94.363373 166.783981,96.975471 
	C173.748383,105.827133 173.551376,102.647438 167.014572,111.046875 
	C151.700836,130.724258 136.121002,150.194534 120.132744,169.606125 
	C118.424095,167.758591 116.738380,166.212891 116.127037,164.320175 
	C113.847992,157.264236 111.826035,150.120255 109.888435,142.960388 
	C107.771767,135.138824 105.855591,127.263016 103.852036,119.410851 
	C104.555267,118.258759 105.258507,117.106667 106.290756,115.521980 
	C106.402946,114.785301 106.186127,114.481216 105.969307,114.177139 
	C105.969307,114.177139 105.985954,113.856316 106.355873,113.547867 
	C108.566330,111.580696 110.680573,110.139961 112.203247,108.228073 
	C122.544830,95.243141 132.761658,82.158867 143.018784,69.106674 
z"/>
<path fill="#EC5329" opacity="1.000000" stroke="none" 
	d="
M78.973251,61.022003 
	C77.486954,63.122761 76.000656,65.223518 74.094162,67.779388 
	C73.421745,68.806404 73.169518,69.378304 72.629272,70.123222 
	C67.634865,76.263809 62.872662,82.188423 58.238014,88.211205 
	C53.730682,94.068550 49.354061,100.026482 44.941658,105.975327 
	C44.963268,106.010406 44.942215,105.931999 44.708405,106.011368 
	C44.201950,106.290794 43.998947,106.546204 43.587967,107.028976 
	C41.847595,109.042168 40.384853,110.883331 38.922104,112.724495 
	C29.568689,101.548012 20.147099,90.426468 11.003995,79.080505 
	C10.342634,78.259796 11.225521,75.431992 12.204072,74.166573 
	C27.461502,54.436352 42.852207,34.809177 58.215946,15.161187 
	C59.239803,13.851830 60.294060,12.566245 61.871155,11.001761 
	C62.557884,10.421539 62.707638,10.109159 62.857388,9.796780 
	C62.857388,9.796780 62.933262,9.792336 63.187141,9.963041 
	C63.959080,11.072885 64.477142,12.012023 64.994293,13.358295 
	C66.276505,17.850023 67.627014,21.914890 68.829941,26.022968 
	C72.243340,37.679859 75.596420,49.354412 78.973251,61.022003 
M52.207077,67.014343 
	C51.388626,67.342155 50.570175,67.669960 48.843441,68.361557 
	C54.736607,68.361557 59.531033,68.361557 64.325462,68.361557 
	C64.317360,67.909042 64.309250,67.456528 64.301147,67.004013 
	C60.554634,67.004013 56.808128,67.004013 52.207077,67.014343 
M67.825233,68.246559 
	C67.880257,68.412834 67.935280,68.579102 67.990295,68.745377 
	C68.044060,68.578072 68.097816,68.410767 67.825233,68.246559 
z"/>
<path fill="#EC5429" opacity="1.000000" stroke="none" 
	d="
M64.995209,12.951160 
	C64.477142,12.012023 63.959080,11.072885 63.162731,9.933914 
	C66.973907,9.539134 71.062630,9.197168 75.152977,9.176270 
	C88.455109,9.108309 101.759483,9.055992 115.058594,9.270436 
	C117.082916,9.303078 119.810394,10.204325 120.983627,11.680570 
	C133.079102,26.899990 144.925766,42.317272 156.818939,57.697052 
	C157.282654,58.296719 157.517136,59.073650 158.089447,60.237942 
	C156.196625,60.370293 154.755936,60.556591 153.315002,60.558617 
	C138.017166,60.580162 122.717804,60.458488 107.422523,60.657539 
	C103.858574,60.703922 101.613869,59.523167 99.510437,56.756058 
	C96.867035,53.278587 93.707237,50.193657 90.508438,46.680164 
	C89.766846,44.823105 89.689255,42.918530 88.742371,41.676861 
	C82.357376,33.304001 75.825920,25.041397 69.243713,16.821697 
	C68.060913,15.344642 66.422997,14.232033 64.995209,12.951160 
z"/>
<path fill="#F28123" opacity="1.000000" stroke="none" 
	d="
M117.064842,171.899231 
	C99.572960,171.985764 82.080894,172.123795 64.589546,172.060623 
	C63.196033,172.055588 61.375065,170.997849 60.482094,169.857941 
	C48.572128,154.654572 36.788479,139.352173 24.994514,124.058136 
	C24.521917,123.445282 24.259007,122.670731 23.644434,121.479103 
	C25.332106,121.335312 26.572376,121.138977 27.812845,121.137718 
	C43.477890,121.121819 59.143291,121.087959 74.807594,121.199867 
	C76.676163,121.213219 78.538765,122.059883 80.739334,123.082115 
	C82.056976,124.739105 83.039413,125.834282 84.021835,126.929459 
	C84.167053,127.225395 84.312271,127.521332 84.749664,128.263916 
	C87.029083,130.851852 89.016319,132.993103 91.004066,135.495712 
	C94.532860,140.926376 97.980995,146.053879 101.608711,151.051010 
	C106.690666,158.051285 111.906357,164.954514 117.064842,171.899231 
z"/>
<path fill="#A02024" opacity="1.000000" stroke="none" 
	d="
M39.394321,112.813049 
	C40.384853,110.883331 41.847595,109.042168 43.743515,107.215233 
	C44.431862,106.796982 44.687038,106.364487 44.942215,105.931999 
	C44.942215,105.931999 44.963268,106.010406 45.321136,105.996307 
	C47.324131,105.288429 49.175621,104.876678 50.577713,103.850754 
	C55.895531,99.959625 61.048237,95.843811 66.298775,91.859581 
	C76.513237,84.108612 86.752052,76.389725 96.980782,68.657547 
	C112.015259,68.751945 127.049736,68.846352 142.551498,69.023712 
	C132.761658,82.158867 122.544830,95.243141 112.203247,108.228073 
	C110.680573,110.139961 108.566330,111.580696 106.489693,113.459023 
	C98.120483,113.604485 89.987366,113.530342 80.998138,113.321732 
	C75.089546,113.239143 70.037064,113.291046 64.984589,113.342949 
	C56.611904,113.195839 48.239220,113.048721 39.394321,112.813049 
z"/>
<path fill="#89191A" opacity="1.000000" stroke="none" 
	d="
M96.532440,68.522919 
	C86.752052,76.389725 76.513237,84.108612 66.298775,91.859581 
	C61.048237,95.843811 55.895531,99.959625 50.577713,103.850754 
	C49.175621,104.876678 47.324131,105.288429 45.299526,105.961227 
	C49.354061,100.026482 53.730682,94.068550 58.238014,88.211205 
	C62.872662,82.188423 67.634865,76.263809 73.016624,70.099014 
	C76.093857,69.394157 78.495720,68.886513 80.897583,68.378860 
	C85.959755,68.382004 91.021927,68.385147 96.532440,68.522919 
z"/>
<path fill="#D44329" opacity="1.000000" stroke="none" 
	d="
M117.389709,172.026703 
	C111.906357,164.954514 106.690666,158.051285 101.608711,151.051010 
	C97.980995,146.053879 94.532860,140.926376 91.208824,135.228271 
	C92.692032,132.767380 93.971001,130.935257 95.249969,129.103134 
	C95.431046,129.006638 95.612137,128.910141 96.014343,128.613159 
	C96.235474,128.412674 96.089996,128.265045 96.089996,128.265045 
	C96.284660,128.083237 96.479317,127.901436 97.071198,127.277328 
	C97.756332,126.617584 97.888283,126.328857 97.864273,125.968849 
	C98.240067,125.584969 98.615860,125.201096 99.300949,124.425110 
	C99.780067,123.706230 99.949890,123.379463 100.119705,123.052689 
	C100.119705,123.052689 100.038361,123.039108 100.306808,122.997940 
	C100.706291,122.639168 100.837318,122.321564 100.968346,122.003967 
	C101.720772,121.217422 102.473198,120.430878 103.538834,119.527588 
	C105.855591,127.263016 107.771767,135.138824 109.888435,142.960388 
	C111.826035,150.120255 113.847992,157.264236 116.127037,164.320175 
	C116.738380,166.212891 118.424095,167.758591 119.826431,169.744110 
	C119.262360,170.734482 118.488472,171.444321 117.389709,172.026703 
z"/>
<path fill="#D54129" opacity="1.000000" stroke="none" 
	d="
M64.994293,13.358294 
	C66.422997,14.232033 68.060913,15.344642 69.243713,16.821697 
	C75.825920,25.041397 82.357376,33.304001 88.742371,41.676861 
	C89.689255,42.918530 89.766846,44.823105 90.150696,46.737808 
	C86.565918,51.615223 83.077057,56.175827 79.280724,60.879219 
	C75.596420,49.354412 72.243340,37.679859 68.829941,26.022968 
	C67.627014,21.914890 66.276505,17.850023 64.994293,13.358294 
z"/>
<path fill="#FAF4F1" opacity="1.000000" stroke="none" 
	d="
M94.865234,129.078461 
	C93.971001,130.935257 92.692032,132.767380 91.208305,134.866928 
	C89.016319,132.993103 87.029083,130.851852 84.977081,128.375275 
	C86.735336,128.776367 88.558357,129.512787 90.994392,130.496826 
	C91.629333,130.233994 93.054916,129.643890 94.865234,129.078461 
z"/>
<path fill="#FAF4F1" opacity="1.000000" stroke="none" 
	d="
M65.113152,113.708908 
	C70.037064,113.291046 75.089546,113.239143 80.582039,113.359367 
	C75.761940,113.712616 70.501831,113.893745 65.113152,113.708908 
z"/>
<path fill="#A02024" opacity="1.000000" stroke="none" 
	d="
M80.493576,68.260437 
	C78.495720,68.886513 76.093857,69.394157 73.304642,69.926010 
	C73.169518,69.378304 73.421745,68.806404 73.938484,68.052094 
	C76.165184,67.960457 78.127380,68.051231 80.493576,68.260437 
z"/>
<path fill="#FAF4F1" opacity="1.000000" stroke="none" 
	d="
M84.017105,126.570831 
	C83.039413,125.834282 82.056976,124.739105 81.040237,123.323036 
	C82.008072,124.072166 83.010216,125.142189 84.017105,126.570831 
z"/>
<path fill="#FAF4F1" opacity="1.000000" stroke="none" 
	d="
M106.006432,114.486588 
	C106.186127,114.481216 106.402946,114.785301 106.397133,115.247406 
	C106.130844,115.202301 106.087196,114.999161 106.006432,114.486588 
z"/>
<path fill="#FAF4F1" opacity="1.000000" stroke="none" 
	d="
M97.532562,116.549011 
	C97.478149,116.581177 97.586975,116.516846 97.532562,116.549011 
z"/>
<path fill="#FAF4F1" opacity="1.000000" stroke="none" 
	d="
M100.744003,122.121384 
	C100.837318,122.321564 100.706291,122.639168 100.318329,123.037529 
	C100.214142,122.825127 100.366898,122.531960 100.744003,122.121384 
z"/>
<path fill="#FAF4F1" opacity="1.000000" stroke="none" 
	d="
M99.855820,123.165161 
	C99.949890,123.379463 99.780067,123.706230 99.353806,124.155304 
	C99.262215,123.944283 99.427071,123.610962 99.855820,123.165161 
z"/>
<path fill="#FAF4F1" opacity="1.000000" stroke="none" 
	d="
M97.663338,126.085205 
	C97.888283,126.328857 97.756332,126.617584 97.234375,126.912643 
	C97.060944,126.672630 97.214973,126.409729 97.663338,126.085205 
z"/>
<path fill="#FAF4F1" opacity="1.000000" stroke="none" 
	d="
M96.106705,128.266632 
	C96.089996,128.265045 96.235474,128.412674 96.162445,128.343353 
	C96.089409,128.274017 96.123405,128.268234 96.106705,128.266632 
z"/>
<path fill="#EC5429" opacity="1.000000" stroke="none" 
	d="
M62.594200,9.880859 
	C62.707638,10.109159 62.557884,10.421539 62.169025,10.851095 
	C62.063614,10.633826 62.197311,10.299383 62.594200,9.880859 
z"/>
<path fill="#ED5B2F" opacity="1.000000" stroke="none" 
	d="
M52.634346,67.009178 
	C56.808128,67.004013 60.554634,67.004013 64.301147,67.004013 
	C64.309250,67.456528 64.317360,67.909042 64.325462,68.361557 
	C59.531033,68.361557 54.736607,68.361557 48.843441,68.361557 
	C50.570175,67.669960 51.388626,67.342155 52.634346,67.009178 
z"/>
<path fill="#89191A" opacity="1.000000" stroke="none" 
	d="
M44.708405,106.011368 
	C44.687038,106.364487 44.431862,106.796982 44.021137,107.043213 
	C43.998947,106.546204 44.201950,106.290794 44.708405,106.011368 
z"/>
<path fill="#ED5B2F" opacity="1.000000" stroke="none" 
	d="
M67.988403,68.245010 
	C68.097816,68.410767 68.044060,68.578072 67.990295,68.745377 
	C67.935280,68.579102 67.880257,68.412834 67.988403,68.245010 
z"/>
</svg>