<svg width="24" height="25" viewBox="0 0 24 25" fill="none" xmlns="http://www.w3.org/2000/svg">
<g id="octicon:bell-24">
<path id="Vector" d="M12.0003 1.42206C15.6813 1.42206 19.0003 3.98706 19.0003 7.42206V11.9611C19.0003 12.6031 19.1893 13.2301 19.5453 13.7641L21.7453 17.0621C21.898 17.2906 21.9858 17.5563 21.9992 17.8309C22.0127 18.1054 21.9513 18.3785 21.8216 18.6209C21.6919 18.8632 21.4987 19.0658 21.2628 19.2069C21.027 19.348 20.7571 19.4224 20.4823 19.4221H15.5003C15.5003 19.8817 15.4097 20.3368 15.2338 20.7614C15.0579 21.1861 14.8001 21.5719 14.4751 21.8969C14.1501 22.2219 13.7643 22.4797 13.3397 22.6556C12.915 22.8315 12.4599 22.9221 12.0003 22.9221C11.5406 22.9221 11.0855 22.8315 10.6609 22.6556C10.2362 22.4797 9.85039 22.2219 9.52539 21.8969C9.20038 21.5719 8.94257 21.1861 8.76668 20.7614C8.59079 20.3368 8.50026 19.8817 8.50026 19.4221H3.51926C3.2445 19.4223 2.97483 19.3479 2.73901 19.2069C2.50319 19.0659 2.31006 18.8636 2.18021 18.6214C2.05036 18.3793 1.98867 18.1065 2.00171 17.832C2.01475 17.5576 2.10204 17.2918 2.25426 17.0631L4.45426 13.7641C4.81027 13.2301 5.00025 12.6028 5.00026 11.9611V7.42206C5.00026 3.98706 8.31826 1.42206 12.0003 1.42206ZM6.50026 7.42206V11.9611C6.50052 12.8988 6.2232 13.8157 5.70326 14.5961L3.50326 17.8941L3.50026 17.9041L3.50126 17.9111L3.50526 17.9171L3.51126 17.9211L3.51826 17.9221H20.4823L20.4893 17.9211L20.4953 17.9171L20.4993 17.9111L20.5003 17.9051C20.5003 17.9015 20.4993 17.898 20.4973 17.8951L18.2983 14.5961C17.7781 13.8157 17.5005 12.8989 17.5003 11.9611V7.42206C17.5003 5.05806 15.1173 2.92206 12.0003 2.92206C8.88326 2.92206 6.50026 5.05806 6.50026 7.42206ZM14.0003 19.4221H10.0003C10.0003 19.9525 10.211 20.4612 10.586 20.8363C10.9611 21.2113 11.4698 21.4221 12.0003 21.4221C12.5307 21.4221 13.0394 21.2113 13.4145 20.8363C13.7895 20.4612 14.0003 19.9525 14.0003 19.4221Z" fill="white"/>
</g>
</svg>
