<svg width="16" height="16" viewBox="0 0 16 16" fill="none" xmlns="http://www.w3.org/2000/svg">
<g id="material-symbols:dashboard-customize-outline-rounded">
<path id="Vector" d="M2.66667 7.33333C2.47778 7.33333 2.31956 7.26933 2.192 7.14133C2.06444 7.01333 2.00044 6.85511 2 6.66667V2.66667C2 2.47778 2.064 2.31956 2.192 2.192C2.32 2.06444 2.47822 2.00044 2.66667 2H6.66667C6.85556 2 7.014 2.064 7.142 2.192C7.27 2.32 7.33378 2.47822 7.33333 2.66667V6.66667C7.33333 6.85556 7.26933 7.014 7.14133 7.142C7.01333 7.27 6.85511 7.33378 6.66667 7.33333H2.66667ZM9.33333 7.33333C9.14444 7.33333 8.98622 7.26933 8.85867 7.14133C8.73111 7.01333 8.66711 6.85511 8.66667 6.66667V2.66667C8.66667 2.47778 8.73067 2.31956 8.85867 2.192C8.98667 2.06444 9.14489 2.00044 9.33333 2H13.3333C13.5222 2 13.6807 2.064 13.8087 2.192C13.9367 2.32 14.0004 2.47822 14 2.66667V6.66667C14 6.85556 13.936 7.014 13.808 7.142C13.68 7.27 13.5218 7.33378 13.3333 7.33333H9.33333ZM2.66667 14C2.47778 14 2.31956 13.936 2.192 13.808C2.06444 13.68 2.00044 13.5218 2 13.3333V9.33333C2 9.14444 2.064 8.98622 2.192 8.85867C2.32 8.73111 2.47822 8.66711 2.66667 8.66667H6.66667C6.85556 8.66667 7.014 8.73067 7.142 8.85867C7.27 8.98667 7.33378 9.14489 7.33333 9.33333V13.3333C7.33333 13.5222 7.26933 13.6807 7.14133 13.8087C7.01333 13.9367 6.85511 14.0004 6.66667 14H2.66667ZM11.3333 14C11.1444 14 10.9862 13.936 10.8587 13.808C10.7311 13.68 10.6671 13.5218 10.6667 13.3333V12H9.31667C9.12778 12 8.97222 11.936 8.85 11.808C8.72778 11.68 8.66667 11.5218 8.66667 11.3333C8.66667 11.1444 8.73067 10.9862 8.85867 10.8587C8.98667 10.7311 9.14489 10.6671 9.33333 10.6667H10.6667V9.31667C10.6667 9.12778 10.7307 8.97222 10.8587 8.85C10.9867 8.72778 11.1449 8.66667 11.3333 8.66667C11.5222 8.66667 11.6807 8.73067 11.8087 8.85867C11.9367 8.98667 12.0004 9.14489 12 9.33333V10.6667H13.35C13.5389 10.6667 13.6944 10.7307 13.8167 10.8587C13.9389 10.9867 14 11.1449 14 11.3333C14 11.5222 13.936 11.6807 13.808 11.8087C13.68 11.9367 13.5218 12.0004 13.3333 12H12V13.35C12 13.5389 11.936 13.6944 11.808 13.8167C11.68 13.9389 11.5218 14 11.3333 14ZM10 3.33333V6H12.6667V3.33333H10ZM3.33333 3.33333V6H6V3.33333H3.33333ZM3.33333 10V12.6667H6V10H3.33333Z" fill="#9B9B9B"/>
</g>
</svg>
