<svg width="24" height="25" viewBox="0 0 24 25" fill="none" xmlns="http://www.w3.org/2000/svg">
<g id="fluent:mail-24-regular">
<path id="Vector" d="M5.25 4.42206H18.75C19.5801 4.422 20.3788 4.73961 20.9822 5.30973C21.5856 5.87985 21.948 6.65925 21.995 7.48806L22 7.67206V17.1721C22.0001 18.0022 21.6824 18.8009 21.1123 19.4043C20.5422 20.0077 19.7628 20.3701 18.934 20.4171L18.75 20.4221H5.25C4.41986 20.4221 3.62117 20.1045 3.01777 19.5344C2.41437 18.9643 2.052 18.1849 2.005 17.3561L2 17.1721V7.67206C1.99995 6.84192 2.31755 6.04323 2.88767 5.43983C3.45779 4.83643 4.23719 4.47406 5.066 4.42706L5.25 4.42206ZM20.5 9.79506L12.35 14.0851C12.258 14.1337 12.1568 14.1626 12.053 14.17C11.9492 14.1774 11.845 14.1631 11.747 14.1281L11.651 14.0861L3.5 9.79606V17.1721C3.50002 17.6112 3.66517 18.0344 3.96268 18.3574C4.26019 18.6805 4.6683 18.8799 5.106 18.9161L5.25 18.9221H18.75C19.1893 18.922 19.6126 18.7567 19.9357 18.459C20.2588 18.1613 20.4581 17.7529 20.494 17.3151L20.5 17.1721V9.79506ZM18.75 5.92206H5.25C4.81081 5.92207 4.38768 6.08723 4.06461 6.38474C3.74154 6.68225 3.54214 7.09036 3.506 7.52806L3.5 7.67206V8.10106L12 12.5751L20.5 8.10006V7.67206C20.5 7.23271 20.3347 6.80945 20.037 6.48635C19.7392 6.16325 19.3309 5.96396 18.893 5.92806L18.75 5.92206Z" fill="white"/>
</g>
</svg>
