<svg width="24" height="25" viewBox="0 0 24 25" fill="none" xmlns="http://www.w3.org/2000/svg">
<g id="mingcute:left-line">
<g id="Group">
<path id="Vector" fill-rule="evenodd" clip-rule="evenodd" d="M12.7073 16.5511C12.5198 16.7386 12.2655 16.8439 12.0003 16.8439C11.7352 16.8439 11.4809 16.7386 11.2933 16.5511L5.63634 10.8941C5.54083 10.8019 5.46465 10.6916 5.41224 10.5696C5.35983 10.4475 5.33225 10.3163 5.33109 10.1835C5.32994 10.0508 5.35524 9.91909 5.40552 9.79619C5.4558 9.6733 5.53006 9.56164 5.62395 9.46775C5.71784 9.37386 5.82949 9.29961 5.95239 9.24932C6.07528 9.19904 6.20696 9.17374 6.33974 9.1749C6.47252 9.17605 6.60374 9.20364 6.72575 9.25605C6.84775 9.30845 6.9581 9.38464 7.05034 9.48015L12.0003 14.4301L16.9503 9.48015C17.1389 9.29799 17.3915 9.19719 17.6537 9.19947C17.9159 9.20175 18.1668 9.30692 18.3522 9.49233C18.5376 9.67774 18.6427 9.92855 18.645 10.1907C18.6473 10.4529 18.5465 10.7055 18.3643 10.8941L12.7073 16.5511Z" fill="white"/>
</g>
</g>
</svg>
