<svg width="24" height="25" viewBox="0 0 24 25" fill="none" xmlns="http://www.w3.org/2000/svg">
<g id="solar:settings-linear">
<g id="Group">
<path id="Vector" d="M12 15.4221C13.6569 15.4221 15 14.0789 15 12.4221C15 10.7652 13.6569 9.42206 12 9.42206C10.3431 9.42206 9 10.7652 9 12.4221C9 14.0789 10.3431 15.4221 12 15.4221Z" stroke="white" stroke-width="1.5"/>
<path id="Vector_2" d="M13.7655 2.57406C13.3985 2.42206 12.9325 2.42206 12.0005 2.42206C11.0685 2.42206 10.6025 2.42206 10.2355 2.57406C9.99263 2.67457 9.772 2.82195 9.58617 3.00778C9.40035 3.19361 9.25296 3.41424 9.15245 3.65706C9.06045 3.88006 9.02345 4.14106 9.00945 4.52006C9.00322 4.79405 8.92745 5.06196 8.78926 5.29863C8.65107 5.5353 8.455 5.73296 8.21945 5.87306C7.98035 6.0071 7.71109 6.07816 7.43698 6.07956C7.16288 6.08096 6.89291 6.01265 6.65245 5.88106C6.31645 5.70306 6.07345 5.60506 5.83245 5.57306C5.30677 5.50393 4.77515 5.64636 4.35445 5.96906C4.04045 6.21206 3.80645 6.61506 3.34045 7.42206C2.87445 8.22906 2.64045 8.63206 2.58945 9.02706C2.55509 9.28751 2.57237 9.55218 2.64032 9.80595C2.70826 10.0597 2.82554 10.2976 2.98545 10.5061C3.13345 10.6981 3.34045 10.8591 3.66145 11.0611C4.13445 11.3581 4.43845 11.8641 4.43845 12.4221C4.43845 12.9801 4.13445 13.4861 3.66145 13.7821C3.34045 13.9851 3.13245 14.1461 2.98545 14.3381C2.82554 14.5465 2.70826 14.7844 2.64032 15.0382C2.57237 15.2919 2.55509 15.5566 2.58945 15.8171C2.64145 16.2111 2.87445 16.6151 3.33945 17.4221C3.80645 18.2291 4.03945 18.6321 4.35445 18.8751C4.56289 19.035 4.80078 19.1522 5.05456 19.2202C5.30833 19.2881 5.573 19.3054 5.83345 19.2711C6.07345 19.2391 6.31645 19.1411 6.65245 18.9631C6.89291 18.8315 7.16288 18.7632 7.43698 18.7646C7.71109 18.766 7.98035 18.837 8.21945 18.9711C8.70245 19.2511 8.98945 19.7661 9.00945 20.3241C9.02345 20.7041 9.05945 20.9641 9.15245 21.1871C9.25296 21.4299 9.40035 21.6505 9.58617 21.8363C9.772 22.0222 9.99263 22.1695 10.2355 22.2701C10.6025 22.4221 11.0685 22.4221 12.0005 22.4221C12.9325 22.4221 13.3985 22.4221 13.7655 22.2701C14.0083 22.1695 14.2289 22.0222 14.4147 21.8363C14.6006 21.6505 14.7479 21.4299 14.8484 21.1871C14.9404 20.9641 14.9775 20.7041 14.9915 20.3241C15.0115 19.7661 15.2985 19.2501 15.7815 18.9711C16.0206 18.837 16.2898 18.766 16.5639 18.7646C16.838 18.7632 17.108 18.8315 17.3484 18.9631C17.6844 19.1411 17.9274 19.2391 18.1674 19.2711C18.4279 19.3054 18.6926 19.2881 18.9463 19.2202C19.2001 19.1522 19.438 19.035 19.6465 18.8751C19.9615 18.6331 20.1944 18.2291 20.6604 17.4221C21.1264 16.6151 21.3604 16.2121 21.4114 15.8171C21.4458 15.5566 21.4285 15.2919 21.3606 15.0382C21.2926 14.7844 21.1754 14.5465 21.0154 14.3381C20.8674 14.1461 20.6605 13.9851 20.3395 13.7831C20.1052 13.6407 19.911 13.4411 19.775 13.203C19.6391 12.9649 19.566 12.6962 19.5625 12.4221C19.5625 11.8641 19.8665 11.3581 20.3395 11.0621C20.6605 10.8591 20.8684 10.6981 21.0154 10.5061C21.1754 10.2976 21.2926 10.0597 21.3606 9.80595C21.4285 9.55218 21.4458 9.28751 21.4114 9.02706C21.3594 8.63306 21.1264 8.22906 20.6614 7.42206C20.1944 6.61506 19.9615 6.21206 19.6465 5.96906C19.438 5.80915 19.2001 5.69187 18.9463 5.62392C18.6926 5.55598 18.4279 5.53869 18.1674 5.57306C17.9274 5.60506 17.6845 5.70306 17.3475 5.88106C17.1071 6.01247 16.8373 6.08068 16.5634 6.07928C16.2895 6.07788 16.0204 6.00692 15.7815 5.87306C15.5459 5.73296 15.3498 5.5353 15.2116 5.29863C15.0734 5.06196 14.9977 4.79405 14.9915 4.52006C14.9775 4.14006 14.9414 3.88006 14.8484 3.65706C14.7479 3.41424 14.6006 3.19361 14.4147 3.00778C14.2289 2.82195 14.0083 2.67457 13.7655 2.57406Z" stroke="white" stroke-width="1.5"/>
</g>
</g>
</svg>
