<svg width="24" height="25" viewBox="0 0 24 25" fill="none" xmlns="http://www.w3.org/2000/svg">
<g id="material-symbols:dashboard-customize-outline-rounded">
<path id="Vector" d="M4 11.8441C3.71667 11.8441 3.47933 11.7481 3.288 11.5561C3.09667 11.3641 3.00067 11.1268 3 10.8441V4.84415C3 4.56081 3.096 4.32348 3.288 4.13215C3.48 3.94081 3.71733 3.84481 4 3.84415H10C10.2833 3.84415 10.521 3.94015 10.713 4.13215C10.905 4.32415 11.0007 4.56148 11 4.84415V10.8441C11 11.1275 10.904 11.3651 10.712 11.5571C10.52 11.7491 10.2827 11.8448 10 11.8441H4ZM14 11.8441C13.7167 11.8441 13.4793 11.7481 13.288 11.5561C13.0967 11.3641 13.0007 11.1268 13 10.8441V4.84415C13 4.56081 13.096 4.32348 13.288 4.13215C13.48 3.94081 13.7173 3.84481 14 3.84415H20C20.2833 3.84415 20.521 3.94015 20.713 4.13215C20.905 4.32415 21.0007 4.56148 21 4.84415V10.8441C21 11.1275 20.904 11.3651 20.712 11.5571C20.52 11.7491 20.2827 11.8448 20 11.8441H14ZM4 21.8441C3.71667 21.8441 3.47933 21.7481 3.288 21.5561C3.09667 21.3641 3.00067 21.1268 3 20.8441V14.8441C3 14.5608 3.096 14.3235 3.288 14.1321C3.48 13.9408 3.71733 13.8448 4 13.8441H10C10.2833 13.8441 10.521 13.9401 10.713 14.1321C10.905 14.3241 11.0007 14.5615 11 14.8441V20.8441C11 21.1275 10.904 21.3651 10.712 21.5571C10.52 21.7491 10.2827 21.8448 10 21.8441H4ZM17 21.8441C16.7167 21.8441 16.4793 21.7481 16.288 21.5561C16.0967 21.3641 16.0007 21.1268 16 20.8441V18.8441H13.975C13.6917 18.8441 13.4583 18.7481 13.275 18.5561C13.0917 18.3641 13 18.1268 13 17.8441C13 17.5608 13.096 17.3235 13.288 17.1321C13.48 16.9408 13.7173 16.8448 14 16.8441H16V14.8191C16 14.5358 16.096 14.3025 16.288 14.1191C16.48 13.9358 16.7173 13.8441 17 13.8441C17.2833 13.8441 17.521 13.9401 17.713 14.1321C17.905 14.3241 18.0007 14.5615 18 14.8441V16.8441H20.025C20.3083 16.8441 20.5417 16.9401 20.725 17.1321C20.9083 17.3241 21 17.5615 21 17.8441C21 18.1275 20.904 18.3651 20.712 18.5571C20.52 18.7491 20.2827 18.8448 20 18.8441H18V20.8691C18 21.1525 17.904 21.3858 17.712 21.5691C17.52 21.7525 17.2827 21.8441 17 21.8441ZM15 5.84415V9.84415H19V5.84415H15ZM5 5.84415V9.84415H9V5.84415H5ZM5 15.8441V19.8441H9V15.8441H5Z" fill="white"/>
</g>
</svg>
