<svg xmlns="http://www.w3.org/2000/svg" width="24" height="25" viewBox="0 0 24 25" fill="none">
  <g clip-path="url(#clip0_638_168)">
    <path d="M12 7.84415C12.9797 7.84409 13.9378 8.13184 14.7553 8.67165C15.5729 9.21146 16.2138 9.97954 16.5986 10.8805C16.9833 11.7815 17.0949 12.7756 16.9195 13.7395C16.7441 14.7033 16.2893 15.5944 15.6118 16.302C14.9343 17.0096 14.0638 17.5026 13.1085 17.7198C12.1532 17.9369 11.1552 17.8686 10.2383 17.5234C9.3215 17.1782 8.52629 16.5712 7.95146 15.7779C7.37663 14.9846 7.04752 14.0399 7.005 13.0611L7 12.8441L7.005 12.6271C7.06092 11.3399 7.61161 10.1239 8.54222 9.23281C9.47284 8.34169 10.7115 7.84422 12 7.84415Z" fill="white"/>
  </g>
  <defs>
    <clipPath id="clip0_638_168">
      <rect width="24" height="24" fill="white" transform="translate(0 0.844147)"/>
    </clipPath>
  </defs>
</svg>