<svg width="24" height="25" viewBox="0 0 24 25" fill="none" xmlns="http://www.w3.org/2000/svg">
<g id="iconoir:profile-circle">
<g id="Group">
<path id="Vector" d="M12 2.42206C6.477 2.42206 2 6.89906 2 12.4221C2 17.9451 6.477 22.4221 12 22.4221C17.523 22.4221 22 17.9451 22 12.4221C22 6.89906 17.523 2.42206 12 2.42206Z" stroke="white" stroke-width="1.5" stroke-linecap="round" stroke-linejoin="round"/>
<path id="Vector_2" d="M4.27148 18.7681C4.27148 18.7681 6.50048 15.9221 12.0005 15.9221C17.5005 15.9221 19.7305 18.7681 19.7305 18.7681M12.0005 12.4221C12.7961 12.4221 13.5592 12.106 14.1218 11.5434C14.6844 10.9808 15.0005 10.2177 15.0005 9.42206C15.0005 8.62641 14.6844 7.86335 14.1218 7.30074C13.5592 6.73813 12.7961 6.42206 12.0005 6.42206C11.2048 6.42206 10.4418 6.73813 9.87916 7.30074C9.31655 7.86335 9.00048 8.62641 9.00048 9.42206C9.00048 10.2177 9.31655 10.9808 9.87916 11.5434C10.4418 12.106 11.2048 12.4221 12.0005 12.4221Z" stroke="white" stroke-width="1.5" stroke-linecap="round" stroke-linejoin="round"/>
</g>
</g>
</svg>