<svg width="24" height="25" viewBox="0 0 24 25" fill="none" xmlns="http://www.w3.org/2000/svg">
<g id="bx:search">
<path id="Vector" d="M10 18.8441C11.775 18.8438 13.4988 18.2496 14.897 17.1561L19.293 21.5521L20.707 20.1381L16.311 15.7421C17.405 14.3438 17.9996 12.6196 18 10.8441C18 6.43315 14.411 2.84415 10 2.84415C5.589 2.84415 2 6.43315 2 10.8441C2 15.2551 5.589 18.8441 10 18.8441ZM10 4.84415C13.309 4.84415 16 7.53515 16 10.8441C16 14.1531 13.309 16.8441 10 16.8441C6.691 16.8441 4 14.1531 4 10.8441C4 7.53515 6.691 4.84415 10 4.84415Z" fill="white"/>
</g>
</svg>
