<svg version="1.1" id="Layer_1" xmlns="http://www.w3.org/2000/svg" xmlns:xlink="http://www.w3.org/1999/xlink" x="0px" y="0px"
	 width="100%" viewBox="0 0 224 240" xml:space="preserve">
<path fill="#FFFFFF" opacity="1.000000" stroke="none" 
	d="
M35.624374,174.235168 
	C16.505068,134.668961 21.772284,93.274017 50.987381,61.120937 
	C69.774353,40.444664 93.713081,29.593695 121.935593,29.724873 
	C164.626785,29.923300 195.781219,49.570927 213.677979,88.020859 
	C236.345764,136.720932 215.160599,194.532852 166.149246,217.911865 
	C117.969208,240.894318 60.545204,221.832886 35.624374,174.235168 
M110.853050,218.705826 
	C123.520493,219.893280 135.999359,219.552841 148.407578,216.004684 
	C191.691177,203.627609 221.526627,160.675781 213.258865,113.022827 
	C202.638718,51.811283 135.979660,19.407751 80.999222,48.055195 
	C45.734325,66.429893 26.217831,107.224953 34.150661,145.982086 
	C41.933437,184.006119 70.725189,211.606247 110.853050,218.705826 
z"/>
<path fill="#FFFFFF" opacity="1.000000" stroke="none" 
	d="
M76.644905,108.254440 
	C84.540840,106.417923 91.486107,107.325699 96.262154,113.972008 
	C100.995590,120.559013 100.877464,127.588577 96.602707,134.542480 
	C95.391731,136.512436 95.498856,136.578293 98.043564,139.566727 
	C100.644005,134.460785 104.313393,130.512512 109.411514,127.108719 
	C103.573036,120.602295 100.190063,113.446388 102.157722,104.746872 
	C103.383995,99.325203 106.266121,94.976562 110.780983,91.740517 
	C119.598885,85.420235 131.682404,86.464279 139.070923,94.157066 
	C147.693695,103.134964 147.403366,114.208366 137.925110,126.953850 
	C141.957962,130.468597 146.187912,133.946304 148.577011,138.950027 
	C152.195053,137.835846 151.513748,136.124420 150.114166,133.990875 
	C146.881668,129.063095 146.452560,123.690620 148.381241,118.227837 
	C151.645233,108.982864 162.487671,104.606087 171.488373,108.747169 
	C180.543930,112.913498 184.076462,123.921265 179.202286,132.892761 
	C178.498138,134.188843 177.603882,135.381638 176.530884,137.032639 
	C185.133423,143.624481 186.653427,152.850494 186.150818,162.898407 
	C185.937622,167.160660 184.350433,169.342438 179.842300,169.336166 
	C142.212006,169.283813 104.581589,169.288864 66.951279,169.333405 
	C62.685818,169.338455 61.075214,167.220032 60.857025,163.204239 
	C60.311958,153.172394 61.697258,143.872955 70.166954,137.254074 
	C62.227833,125.027504 65.278732,113.379723 76.644905,108.254440 
M137.302048,137.198074 
	C132.556427,133.127106 127.178970,130.592743 120.836555,131.790298 
	C106.625069,134.473709 102.720741,145.227921 104.026573,158.001785 
	C104.229546,159.987350 105.407623,161.006317 107.337685,161.011002 
	C118.155899,161.037247 128.974319,161.041214 139.792435,160.996857 
	C141.767624,160.988770 142.819031,159.780441 142.940643,157.831665 
	C143.393463,150.575119 143.346268,143.439270 137.302048,137.198074 
M113.064651,100.615700 
	C109.728149,105.005951 108.412949,109.675232 110.820709,114.999527 
	C113.395859,120.694016 120.388268,124.689453 125.785263,123.419800 
	C132.278732,121.892197 138.180450,115.079803 137.467010,109.057152 
	C136.840607,103.769348 134.351486,99.300591 129.038376,97.003181 
	C123.141464,94.453339 118.071411,95.773796 113.064651,100.615700 
M151.322144,152.958755 
	C151.324951,154.616348 151.380737,156.275970 151.317673,157.931061 
	C151.231247,160.199966 152.135986,161.213806 154.526871,161.214600 
	C161.151764,161.216827 167.776489,161.397141 174.401520,161.491287 
	C176.310486,161.518402 177.379135,160.753174 177.739548,158.668884 
	C179.064468,151.006836 174.833893,144.060471 167.544769,142.221207 
	C160.090683,140.340286 153.759048,144.215759 151.322144,152.958755 
M95.378502,150.573517 
	C91.177177,143.053192 85.861977,140.296906 79.243042,142.206223 
	C72.472878,144.159195 68.898216,149.635559 69.215378,156.983810 
	C69.346764,160.027908 70.639137,161.121429 73.508507,161.079376 
	C77.840385,161.015900 82.174339,161.093842 86.507408,161.110519 
	C95.930801,161.146790 95.930801,161.146500 95.378502,150.573517 
M155.348465,125.190468 
	C155.749908,126.437798 155.909103,127.842697 156.598526,128.902725 
	C158.614197,132.001923 161.464996,134.051620 165.310089,133.527969 
	C169.299133,132.984711 171.598343,130.244110 173.047592,126.605919 
	C174.451920,123.080505 172.774811,120.406708 170.651688,118.049538 
	C168.226608,115.357109 164.971695,114.660240 161.544739,115.826981 
	C157.523468,117.196083 155.332123,120.059082 155.348465,125.190468 
M89.630486,130.023529 
	C92.373970,126.223915 92.740173,122.310928 89.593216,118.657288 
	C87.015457,115.664474 83.618820,114.602562 79.712189,115.855949 
	C75.950768,117.062752 73.993637,119.980438 73.582344,123.591621 
	C73.126762,127.591721 75.446419,130.528061 78.764893,132.518906 
	C82.714706,134.888489 86.057449,133.292526 89.630486,130.023529 
z"/>
</svg>